<svg width="16" height="16" viewBox="0 0 16 16" fill="none" xmlns="http://www.w3.org/2000/svg">
<path d="M15.1667 3.33334C15.1667 3.60668 14.94 3.83334 14.6667 3.83334L7.33337 3.83334C7.06004 3.83334 6.83337 3.60668 6.83337 3.33334C6.83337 3.06001 7.06004 2.83334 7.33337 2.83334L14.6667 2.83334C14.94 2.83334 15.1667 3.06001 15.1667 3.33334Z" fill="#292D32"/>
<path d="M5.16671 3.33334C5.16671 3.60668 4.94004 3.83334 4.66671 3.83334L1.33337 3.83334C1.06004 3.83334 0.833374 3.60668 0.833374 3.33334C0.833374 3.06001 1.06004 2.83334 1.33337 2.83334H4.66671C4.94004 2.83334 5.16671 3.06001 5.16671 3.33334Z" fill="#292D32"/>
<path d="M15.1667 8C15.1667 8.27333 14.94 8.5 14.6667 8.5H11.3334C11.06 8.5 10.8334 8.27333 10.8334 8C10.8334 7.72667 11.06 7.5 11.3334 7.5H14.6667C14.94 7.5 15.1667 7.72667 15.1667 8Z" fill="#292D32"/>
<path d="M9.16671 8C9.16671 8.27333 8.94004 8.5 8.66671 8.5H1.33337C1.06004 8.5 0.833374 8.27333 0.833374 8C0.833374 7.72667 1.06004 7.5 1.33337 7.5H8.66671C8.94004 7.5 9.16671 7.72667 9.16671 8Z" fill="#292D32"/>
<path d="M15.1667 12.6667C15.1667 12.94 14.94 13.1667 14.6667 13.1667H7.33337C7.06004 13.1667 6.83337 12.94 6.83337 12.6667C6.83337 12.3934 7.06004 12.1667 7.33337 12.1667H14.6667C14.94 12.1667 15.1667 12.3934 15.1667 12.6667Z" fill="#292D32"/>
<path d="M5.16671 12.6667C5.16671 12.94 4.94004 13.1667 4.66671 13.1667H1.33337C1.06004 13.1667 0.833374 12.94 0.833374 12.6667C0.833374 12.3934 1.06004 12.1667 1.33337 12.1667H4.66671C4.94004 12.1667 5.16671 12.3934 5.16671 12.6667Z" fill="#292D32"/>
<path d="M7.83337 11.3333V14C7.83337 14.2733 7.60671 14.5 7.33337 14.5C7.06004 14.5 6.83337 14.2733 6.83337 14V11.3333C6.83337 11.06 7.06004 10.8333 7.33337 10.8333C7.60671 10.8333 7.83337 11.06 7.83337 11.3333Z" fill="#292D32"/>
<path d="M7.83337 1.99999V4.66666C7.83337 4.93999 7.60671 5.16666 7.33337 5.16666C7.06004 5.16666 6.83337 4.93999 6.83337 4.66666V1.99999C6.83337 1.72666 7.06004 1.49999 7.33337 1.49999C7.60671 1.49999 7.83337 1.72666 7.83337 1.99999Z" fill="#292D32"/>
<path d="M9.16663 6.66668V9.33334C9.16663 9.60668 8.93996 9.83334 8.66663 9.83334C8.39329 9.83334 8.16663 9.60668 8.16663 9.33334V6.66668C8.16663 6.39334 8.39329 6.16668 8.66663 6.16668C8.93996 6.16668 9.16663 6.39334 9.16663 6.66668Z" fill="#292D32"/>
</svg>
